<mxfile host="app.diagrams.net" agent="Mozilla/5.0 (Windows NT 10.0; Win64; x64) AppleWebKit/537.36 (KHTML, like Gecko) Chrome/135.0.0.0 Safari/537.36" version="26.2.12" pages="2">
  <diagram name="Page-1" id="74e2e168-ea6b-b213-b513-2b3c1d86103e">
    <mxGraphModel dx="2561" dy="652" grid="1" gridSize="10" guides="1" tooltips="1" connect="1" arrows="1" fold="1" page="1" pageScale="1" pageWidth="1100" pageHeight="850" background="none" math="0" shadow="0">
      <root>
        <mxCell id="0" />
        <mxCell id="1" parent="0" />
        <mxCell id="FXvvX26UyNrnhAL5f0EQ-3" value="" style="edgeStyle=orthogonalEdgeStyle;rounded=0;orthogonalLoop=1;jettySize=auto;html=1;" parent="1" source="FXvvX26UyNrnhAL5f0EQ-1" edge="1">
          <mxGeometry relative="1" as="geometry">
            <mxPoint x="980" y="270" as="targetPoint" />
          </mxGeometry>
        </mxCell>
        <mxCell id="FXvvX26UyNrnhAL5f0EQ-1" value="点单逻辑Order.vue" style="rounded=1;whiteSpace=wrap;html=1;" parent="1" vertex="1">
          <mxGeometry x="920" y="130" width="120" height="60" as="geometry" />
        </mxCell>
        <mxCell id="YKNv07Idld9gK1rEMbDj-2" value="" style="edgeStyle=orthogonalEdgeStyle;rounded=0;orthogonalLoop=1;jettySize=auto;html=1;" parent="1" source="FXvvX26UyNrnhAL5f0EQ-4" target="YKNv07Idld9gK1rEMbDj-1" edge="1">
          <mxGeometry relative="1" as="geometry" />
        </mxCell>
        <mxCell id="YKNv07Idld9gK1rEMbDj-3" value="" style="edgeStyle=orthogonalEdgeStyle;rounded=0;orthogonalLoop=1;jettySize=auto;html=1;" parent="1" source="FXvvX26UyNrnhAL5f0EQ-4" target="YKNv07Idld9gK1rEMbDj-1" edge="1">
          <mxGeometry relative="1" as="geometry" />
        </mxCell>
        <mxCell id="YKNv07Idld9gK1rEMbDj-5" value="" style="edgeStyle=orthogonalEdgeStyle;rounded=0;orthogonalLoop=1;jettySize=auto;html=1;" parent="1" source="FXvvX26UyNrnhAL5f0EQ-4" target="YKNv07Idld9gK1rEMbDj-4" edge="1">
          <mxGeometry relative="1" as="geometry" />
        </mxCell>
        <mxCell id="FXvvX26UyNrnhAL5f0EQ-4" value="展示餐品" style="rounded=0;whiteSpace=wrap;html=1;" parent="1" vertex="1">
          <mxGeometry x="920" y="270" width="120" height="60" as="geometry" />
        </mxCell>
        <mxCell id="FXvvX26UyNrnhAL5f0EQ-9" value="" style="edgeStyle=orthogonalEdgeStyle;rounded=0;orthogonalLoop=1;jettySize=auto;html=1;entryX=0.5;entryY=0;entryDx=0;entryDy=0;" parent="1" source="FXvvX26UyNrnhAL5f0EQ-5" target="FXvvX26UyNrnhAL5f0EQ-10" edge="1">
          <mxGeometry relative="1" as="geometry">
            <mxPoint x="160" y="270" as="targetPoint" />
          </mxGeometry>
        </mxCell>
        <mxCell id="FXvvX26UyNrnhAL5f0EQ-5" value="用户登录逻辑" style="rounded=1;whiteSpace=wrap;html=1;" parent="1" vertex="1">
          <mxGeometry x="260" y="130" width="120" height="60" as="geometry" />
        </mxCell>
        <mxCell id="FXvvX26UyNrnhAL5f0EQ-18" value="" style="edgeStyle=orthogonalEdgeStyle;rounded=0;orthogonalLoop=1;jettySize=auto;html=1;" parent="1" source="FXvvX26UyNrnhAL5f0EQ-10" target="FXvvX26UyNrnhAL5f0EQ-17" edge="1">
          <mxGeometry relative="1" as="geometry" />
        </mxCell>
        <mxCell id="FXvvX26UyNrnhAL5f0EQ-10" value="输入账号信息" style="shape=parallelogram;html=1;strokeWidth=2;perimeter=parallelogramPerimeter;whiteSpace=wrap;rounded=1;arcSize=12;size=0.23;" parent="1" vertex="1">
          <mxGeometry x="270" y="270" width="100" height="60" as="geometry" />
        </mxCell>
        <mxCell id="FXvvX26UyNrnhAL5f0EQ-11" value="&lt;div&gt;canteen-user&lt;/div&gt;本地存储&lt;div&gt;&lt;ol style=&quot;box-sizing: border-box; min-width: 0px; min-height: 0px; font-family: var(--source-code-font-family); white-space-collapse: preserve; padding: 0px; margin: 0px; z-index: 0; position: relative; color: rgb(28, 28, 20); display: flex; flex-direction: column; list-style-type: none; text-align: start; background-color: rgb(255, 251, 255);&quot; tabindex=&quot;-1&quot; role=&quot;tree&quot; class=&quot;tree-outline hide-selection-when-blurred source-code object-properties-section&quot;&gt;&lt;li style=&quot;box-sizing: border-box; min-width: 0px; min-height: 16px; display: flex; flex-direction: row; text-overflow: ellipsis; white-space: nowrap; position: relative; align-items: center; user-select: text;&quot; aria-expanded=&quot;true&quot; class=&quot;parent object-properties-section-root-element expanded&quot; role=&quot;treeitem&quot; title=&quot;&quot;&gt;&lt;span style=&quot;box-sizing: border-box; min-width: 0px; min-height: 0px;&quot; tabindex=&quot;-1&quot;&gt;{id: 1, username: &quot;aaa&quot;, password: &quot;aaa&quot;, name: &quot;aaa&quot;,…}&lt;/span&gt;&lt;/li&gt;&lt;ol style=&quot;box-sizing: border-box; min-width: 0px; min-height: 0px; list-style-type: none; padding-left: 12px;&quot; role=&quot;group&quot; class=&quot;children expanded&quot;&gt;&lt;li style=&quot;box-sizing: border-box; min-width: 0px; min-height: 16px; text-overflow: ellipsis; white-space: nowrap; position: relative; display: flex; align-items: center; user-select: text;&quot; data-object-property-name-for-test=&quot;account&quot; role=&quot;treeitem&quot;&gt;&lt;span style=&quot;box-sizing: border-box; min-width: 0px; min-height: 0px; overflow: hidden; line-height: 16px; display: flex;&quot; class=&quot;name-and-value&quot;&gt;&lt;span style=&quot;box-sizing: border-box; min-width: 0px; min-height: 0px; color: var(--sys-color-token-tag); flex-shrink: 0;&quot; title=&quot;account&quot; class=&quot;name&quot;&gt;account&lt;/span&gt;&lt;span style=&quot;box-sizing: border-box; min-width: 0px; min-height: 0px; white-space-collapse: preserve; flex-shrink: 0;&quot; class=&quot;separator&quot;&gt;: &lt;/span&gt;&lt;span style=&quot;box-sizing: border-box; min-width: 0px; min-height: 0px; color: var(--sys-color-token-attribute-value);&quot; title=&quot;1549&quot; class=&quot;object-value-number value&quot;&gt;1549&lt;/span&gt;&lt;/span&gt;&lt;/li&gt;&lt;li style=&quot;box-sizing: border-box; min-width: 0px; min-height: 16px; text-overflow: ellipsis; white-space: nowrap; position: relative; display: flex; align-items: center; user-select: text;&quot; data-object-property-name-for-test=&quot;avatar&quot; role=&quot;treeitem&quot;&gt;&lt;div style=&quot;box-sizing: border-box; min-width: 0px; min-height: 0px; position: absolute; inset: 0px; z-index: -1; margin-left: -10000px; background-color: var(--sys-color-state-hover-on-subtle);&quot; class=&quot;selection fill&quot;&gt;&lt;/div&gt;&lt;span style=&quot;box-sizing: border-box; min-width: 0px; min-height: 0px; overflow: hidden; line-height: 16px; display: flex;&quot; class=&quot;name-and-value&quot;&gt;&lt;span style=&quot;box-sizing: border-box; min-width: 0px; min-height: 0px; color: var(--sys-color-token-tag); flex-shrink: 0;&quot; title=&quot;avatar&quot; class=&quot;name&quot;&gt;avatar&lt;/span&gt;&lt;span style=&quot;box-sizing: border-box; min-width: 0px; min-height: 0px; white-space-collapse: preserve; flex-shrink: 0;&quot; class=&quot;separator&quot;&gt;: &lt;/span&gt;&lt;span style=&quot;box-sizing: border-box; min-width: 0px; min-height: 0px; white-space-collapse: preserve; unicode-bidi: -webkit-isolate; color: var(--sys-color-token-property-special);&quot; title=&quot;http://localhost:9090/files/download/woman_1740647640751.png&quot; class=&quot;object-value-string value&quot;&gt;&quot;http://localhost:9090/files/download/woman_1740647640751.png&quot;&lt;/span&gt;&lt;/span&gt;&lt;/li&gt;&lt;li style=&quot;box-sizing: border-box; min-width: 0px; min-height: 16px; text-overflow: ellipsis; white-space: nowrap; position: relative; display: flex; align-items: center; user-select: text;&quot; data-object-property-name-for-test=&quot;id&quot; role=&quot;treeitem&quot;&gt;&lt;span style=&quot;box-sizing: border-box; min-width: 0px; min-height: 0px; overflow: hidden; line-height: 16px; display: flex;&quot; class=&quot;name-and-value&quot;&gt;&lt;span style=&quot;box-sizing: border-box; min-width: 0px; min-height: 0px; color: var(--sys-color-token-tag); flex-shrink: 0;&quot; title=&quot;id&quot; class=&quot;name&quot;&gt;id&lt;/span&gt;&lt;span style=&quot;box-sizing: border-box; min-width: 0px; min-height: 0px; white-space-collapse: preserve; flex-shrink: 0;&quot; class=&quot;separator&quot;&gt;: &lt;/span&gt;&lt;span style=&quot;box-sizing: border-box; min-width: 0px; min-height: 0px; color: var(--sys-color-token-attribute-value);&quot; title=&quot;1&quot; class=&quot;object-value-number value&quot;&gt;1&lt;/span&gt;&lt;/span&gt;&lt;/li&gt;&lt;li style=&quot;box-sizing: border-box; min-width: 0px; min-height: 16px; text-overflow: ellipsis; white-space: nowrap; position: relative; display: flex; align-items: center; user-select: text;&quot; class=&quot;&quot; data-object-property-name-for-test=&quot;name&quot; role=&quot;treeitem&quot;&gt;&lt;span style=&quot;box-sizing: border-box; min-width: 0px; min-height: 0px; overflow: hidden; line-height: 16px; display: flex;&quot; class=&quot;name-and-value&quot;&gt;&lt;span style=&quot;box-sizing: border-box; min-width: 0px; min-height: 0px; color: var(--sys-color-token-tag); flex-shrink: 0;&quot; title=&quot;name&quot; class=&quot;name&quot;&gt;name&lt;/span&gt;&lt;span style=&quot;box-sizing: border-box; min-width: 0px; min-height: 0px; white-space-collapse: preserve; flex-shrink: 0;&quot; class=&quot;separator&quot;&gt;: &lt;/span&gt;&lt;span style=&quot;box-sizing: border-box; min-width: 0px; min-height: 0px; white-space-collapse: preserve; unicode-bidi: -webkit-isolate; color: var(--sys-color-token-property-special);&quot; title=&quot;aaa&quot; class=&quot;object-value-string value&quot;&gt;&quot;aaa&quot;&lt;/span&gt;&lt;/span&gt;&lt;/li&gt;&lt;li style=&quot;box-sizing: border-box; min-width: 0px; min-height: 16px; text-overflow: ellipsis; white-space: nowrap; position: relative; display: flex; align-items: center; user-select: text;&quot; data-object-property-name-for-test=&quot;password&quot; role=&quot;treeitem&quot;&gt;&lt;span style=&quot;box-sizing: border-box; min-width: 0px; min-height: 0px; overflow: hidden; line-height: 16px; display: flex;&quot; class=&quot;name-and-value&quot;&gt;&lt;span style=&quot;box-sizing: border-box; min-width: 0px; min-height: 0px; color: var(--sys-color-token-tag); flex-shrink: 0;&quot; title=&quot;password&quot; class=&quot;name&quot;&gt;password&lt;/span&gt;&lt;span style=&quot;box-sizing: border-box; min-width: 0px; min-height: 0px; white-space-collapse: preserve; flex-shrink: 0;&quot; class=&quot;separator&quot;&gt;: &lt;/span&gt;&lt;span style=&quot;box-sizing: border-box; min-width: 0px; min-height: 0px; white-space-collapse: preserve; unicode-bidi: -webkit-isolate; color: var(--sys-color-token-property-special);&quot; title=&quot;aaa&quot; class=&quot;object-value-string value&quot;&gt;&quot;aaa&quot;&lt;/span&gt;&lt;/span&gt;&lt;/li&gt;&lt;li style=&quot;box-sizing: border-box; min-width: 0px; min-height: 16px; text-overflow: ellipsis; white-space: nowrap; position: relative; display: flex; align-items: center; user-select: text;&quot; data-object-property-name-for-test=&quot;phone&quot; role=&quot;treeitem&quot;&gt;&lt;span style=&quot;box-sizing: border-box; min-width: 0px; min-height: 0px; overflow: hidden; line-height: 16px; display: flex;&quot; class=&quot;name-and-value&quot;&gt;&lt;span style=&quot;box-sizing: border-box; min-width: 0px; min-height: 0px; color: var(--sys-color-token-tag); flex-shrink: 0;&quot; title=&quot;phone&quot; class=&quot;name&quot;&gt;phone&lt;/span&gt;&lt;span style=&quot;box-sizing: border-box; min-width: 0px; min-height: 0px; white-space-collapse: preserve; flex-shrink: 0;&quot; class=&quot;separator&quot;&gt;: &lt;/span&gt;&lt;span style=&quot;box-sizing: border-box; min-width: 0px; min-height: 0px; white-space-collapse: preserve; unicode-bidi: -webkit-isolate; color: var(--sys-color-token-property-special);&quot; title=&quot;11111111111&quot; class=&quot;object-value-string value&quot;&gt;&quot;11111111111&quot;&lt;/span&gt;&lt;/span&gt;&lt;/li&gt;&lt;li style=&quot;box-sizing: border-box; min-width: 0px; min-height: 16px; text-overflow: ellipsis; white-space: nowrap; position: relative; display: flex; align-items: center; user-select: text;&quot; data-object-property-name-for-test=&quot;role&quot; role=&quot;treeitem&quot;&gt;&lt;span style=&quot;box-sizing: border-box; min-width: 0px; min-height: 0px; overflow: hidden; line-height: 16px; display: flex;&quot; class=&quot;name-and-value&quot;&gt;&lt;span style=&quot;box-sizing: border-box; min-width: 0px; min-height: 0px; color: var(--sys-color-token-tag); flex-shrink: 0;&quot; title=&quot;role&quot; class=&quot;name&quot;&gt;role&lt;/span&gt;&lt;span style=&quot;box-sizing: border-box; min-width: 0px; min-height: 0px; white-space-collapse: preserve; flex-shrink: 0;&quot; class=&quot;separator&quot;&gt;: &lt;/span&gt;&lt;span style=&quot;box-sizing: border-box; min-width: 0px; min-height: 0px; white-space-collapse: preserve; unicode-bidi: -webkit-isolate; color: var(--sys-color-token-property-special);&quot; title=&quot;USER&quot; class=&quot;object-value-string value&quot;&gt;&quot;USER&quot;&lt;/span&gt;&lt;/span&gt;&lt;/li&gt;&lt;li style=&quot;box-sizing: border-box; min-width: 0px; min-height: 16px; text-overflow: ellipsis; white-space: nowrap; position: relative; display: flex; align-items: center; user-select: text;&quot; data-object-property-name-for-test=&quot;sex&quot; role=&quot;treeitem&quot;&gt;&lt;span style=&quot;box-sizing: border-box; min-width: 0px; min-height: 0px; overflow: hidden; line-height: 16px; display: flex;&quot; class=&quot;name-and-value&quot;&gt;&lt;span style=&quot;box-sizing: border-box; min-width: 0px; min-height: 0px; color: var(--sys-color-token-tag); flex-shrink: 0;&quot; title=&quot;sex&quot; class=&quot;name&quot;&gt;sex&lt;/span&gt;&lt;span style=&quot;box-sizing: border-box; min-width: 0px; min-height: 0px; white-space-collapse: preserve; flex-shrink: 0;&quot; class=&quot;separator&quot;&gt;: &lt;/span&gt;&lt;span style=&quot;box-sizing: border-box; min-width: 0px; min-height: 0px; white-space-collapse: preserve; unicode-bidi: -webkit-isolate; color: var(--sys-color-token-property-special);&quot; title=&quot;男&quot; class=&quot;object-value-string value&quot;&gt;&quot;男&quot;&lt;/span&gt;&lt;/span&gt;&lt;/li&gt;&lt;li style=&quot;box-sizing: border-box; min-width: 0px; min-height: 16px; outline-width: 0px; text-overflow: ellipsis; white-space: nowrap; position: relative; display: flex; align-items: center; user-select: text;&quot; aria-selected=&quot;true&quot; class=&quot;selected&quot; tabindex=&quot;0&quot; data-object-property-name-for-test=&quot;username&quot; role=&quot;treeitem&quot;&gt;&lt;span style=&quot;box-sizing: border-box; min-width: 0px; min-height: 0px; overflow: hidden; line-height: 16px; display: flex;&quot; class=&quot;name-and-value&quot;&gt;&lt;span style=&quot;box-sizing: border-box; min-width: 0px; min-height: 0px; color: var(--sys-color-token-tag); flex-shrink: 0;&quot; title=&quot;username&quot; class=&quot;name&quot;&gt;username&lt;/span&gt;&lt;span style=&quot;box-sizing: border-box; min-width: 0px; min-height: 0px; white-space-collapse: preserve; flex-shrink: 0;&quot; class=&quot;separator&quot;&gt;: &lt;/span&gt;&lt;span style=&quot;box-sizing: border-box; min-width: 0px; min-height: 0px; white-space-collapse: preserve; unicode-bidi: -webkit-isolate; color: var(--sys-color-token-property-special);&quot; title=&quot;aaa&quot; class=&quot;object-value-string value&quot;&gt;&quot;aaa&quot;&lt;/span&gt;&lt;/span&gt;&lt;/li&gt;&lt;/ol&gt;&lt;/ol&gt;&lt;/div&gt;" style="whiteSpace=wrap;html=1;strokeWidth=2;rounded=1;arcSize=12;" parent="1" vertex="1">
          <mxGeometry x="-300" y="200" width="460" height="270" as="geometry" />
        </mxCell>
        <mxCell id="FXvvX26UyNrnhAL5f0EQ-15" style="edgeStyle=orthogonalEdgeStyle;rounded=0;orthogonalLoop=1;jettySize=auto;html=1;exitX=0;exitY=0.5;exitDx=0;exitDy=0;entryX=0.995;entryY=0.365;entryDx=0;entryDy=0;entryPerimeter=0;" parent="1" source="FXvvX26UyNrnhAL5f0EQ-10" target="FXvvX26UyNrnhAL5f0EQ-11" edge="1">
          <mxGeometry relative="1" as="geometry" />
        </mxCell>
        <mxCell id="FXvvX26UyNrnhAL5f0EQ-17" value="跳转到home页面&lt;div&gt;并展示餐桌信息&lt;/div&gt;" style="whiteSpace=wrap;html=1;strokeWidth=2;rounded=1;arcSize=12;" parent="1" vertex="1">
          <mxGeometry x="260" y="410" width="120" height="60" as="geometry" />
        </mxCell>
        <mxCell id="FXvvX26UyNrnhAL5f0EQ-22" value="" style="edgeStyle=orthogonalEdgeStyle;rounded=0;orthogonalLoop=1;jettySize=auto;html=1;" parent="1" source="FXvvX26UyNrnhAL5f0EQ-19" target="FXvvX26UyNrnhAL5f0EQ-21" edge="1">
          <mxGeometry relative="1" as="geometry" />
        </mxCell>
        <mxCell id="FXvvX26UyNrnhAL5f0EQ-24" value="" style="edgeStyle=orthogonalEdgeStyle;rounded=0;orthogonalLoop=1;jettySize=auto;html=1;" parent="1" source="FXvvX26UyNrnhAL5f0EQ-19" target="FXvvX26UyNrnhAL5f0EQ-23" edge="1">
          <mxGeometry relative="1" as="geometry" />
        </mxCell>
        <mxCell id="FXvvX26UyNrnhAL5f0EQ-26" value="否" style="edgeLabel;html=1;align=center;verticalAlign=middle;resizable=0;points=[];" parent="FXvvX26UyNrnhAL5f0EQ-24" vertex="1" connectable="0">
          <mxGeometry x="-0.16" y="6" relative="1" as="geometry">
            <mxPoint as="offset" />
          </mxGeometry>
        </mxCell>
        <mxCell id="FXvvX26UyNrnhAL5f0EQ-19" value="餐桌是否空闲" style="strokeWidth=2;html=1;shape=mxgraph.flowchart.decision;whiteSpace=wrap;" parent="1" vertex="1">
          <mxGeometry x="270" y="540" width="100" height="100" as="geometry" />
        </mxCell>
        <mxCell id="FXvvX26UyNrnhAL5f0EQ-20" style="edgeStyle=orthogonalEdgeStyle;rounded=0;orthogonalLoop=1;jettySize=auto;html=1;exitX=0.5;exitY=1;exitDx=0;exitDy=0;entryX=0.5;entryY=0;entryDx=0;entryDy=0;entryPerimeter=0;" parent="1" source="FXvvX26UyNrnhAL5f0EQ-17" target="FXvvX26UyNrnhAL5f0EQ-19" edge="1">
          <mxGeometry relative="1" as="geometry" />
        </mxCell>
        <mxCell id="FXvvX26UyNrnhAL5f0EQ-21" value="空闲" style="whiteSpace=wrap;html=1;strokeWidth=2;" parent="1" vertex="1">
          <mxGeometry x="440" y="560" width="120" height="60" as="geometry" />
        </mxCell>
        <mxCell id="FXvvX26UyNrnhAL5f0EQ-23" value="占用" style="whiteSpace=wrap;html=1;strokeWidth=2;" parent="1" vertex="1">
          <mxGeometry x="260" y="740" width="120" height="60" as="geometry" />
        </mxCell>
        <mxCell id="FXvvX26UyNrnhAL5f0EQ-25" value="是" style="text;html=1;align=center;verticalAlign=middle;resizable=0;points=[];autosize=1;strokeColor=none;fillColor=none;" parent="1" vertex="1">
          <mxGeometry x="380" y="568" width="40" height="30" as="geometry" />
        </mxCell>
        <mxCell id="FXvvX26UyNrnhAL5f0EQ-29" value="" style="edgeStyle=orthogonalEdgeStyle;rounded=0;orthogonalLoop=1;jettySize=auto;html=1;" parent="1" source="FXvvX26UyNrnhAL5f0EQ-27" target="FXvvX26UyNrnhAL5f0EQ-28" edge="1">
          <mxGeometry relative="1" as="geometry" />
        </mxCell>
        <mxCell id="FXvvX26UyNrnhAL5f0EQ-27" value="退桌逻辑" style="rounded=1;whiteSpace=wrap;html=1;" parent="1" vertex="1">
          <mxGeometry x="-630" y="130" width="120" height="60" as="geometry" />
        </mxCell>
        <mxCell id="FXvvX26UyNrnhAL5f0EQ-31" value="" style="edgeStyle=orthogonalEdgeStyle;rounded=0;orthogonalLoop=1;jettySize=auto;html=1;" parent="1" source="FXvvX26UyNrnhAL5f0EQ-28" target="FXvvX26UyNrnhAL5f0EQ-30" edge="1">
          <mxGeometry relative="1" as="geometry" />
        </mxCell>
        <mxCell id="FXvvX26UyNrnhAL5f0EQ-28" value="点击退桌" style="whiteSpace=wrap;html=1;rounded=1;" parent="1" vertex="1">
          <mxGeometry x="-630" y="270" width="120" height="60" as="geometry" />
        </mxCell>
        <mxCell id="FXvvX26UyNrnhAL5f0EQ-30" value="发起退桌请求到后端&lt;div&gt;后端更改信息&lt;/div&gt;" style="whiteSpace=wrap;html=1;rounded=1;" parent="1" vertex="1">
          <mxGeometry x="-630" y="410" width="120" height="60" as="geometry" />
        </mxCell>
        <mxCell id="FXvvX26UyNrnhAL5f0EQ-35" value="" style="edgeStyle=orthogonalEdgeStyle;rounded=0;orthogonalLoop=1;jettySize=auto;html=1;" parent="1" source="FXvvX26UyNrnhAL5f0EQ-32" target="FXvvX26UyNrnhAL5f0EQ-34" edge="1">
          <mxGeometry relative="1" as="geometry" />
        </mxCell>
        <mxCell id="FXvvX26UyNrnhAL5f0EQ-38" value="否" style="edgeLabel;html=1;align=center;verticalAlign=middle;resizable=0;points=[];" parent="FXvvX26UyNrnhAL5f0EQ-35" vertex="1" connectable="0">
          <mxGeometry x="-0.207" y="1" relative="1" as="geometry">
            <mxPoint y="1" as="offset" />
          </mxGeometry>
        </mxCell>
        <mxCell id="FXvvX26UyNrnhAL5f0EQ-37" value="" style="edgeStyle=orthogonalEdgeStyle;rounded=0;orthogonalLoop=1;jettySize=auto;html=1;" parent="1" source="FXvvX26UyNrnhAL5f0EQ-32" target="FXvvX26UyNrnhAL5f0EQ-36" edge="1">
          <mxGeometry relative="1" as="geometry" />
        </mxCell>
        <mxCell id="FXvvX26UyNrnhAL5f0EQ-39" value="是" style="edgeLabel;html=1;align=center;verticalAlign=middle;resizable=0;points=[];" parent="FXvvX26UyNrnhAL5f0EQ-37" vertex="1" connectable="0">
          <mxGeometry x="0.0584" y="-2" relative="1" as="geometry">
            <mxPoint as="offset" />
          </mxGeometry>
        </mxCell>
        <mxCell id="FXvvX26UyNrnhAL5f0EQ-32" value="&lt;div&gt;判断请求成功&lt;/div&gt;res.code===&#39;200&#39;" style="strokeWidth=2;html=1;shape=mxgraph.flowchart.decision;whiteSpace=wrap;" parent="1" vertex="1">
          <mxGeometry x="-645" y="540" width="150" height="157" as="geometry" />
        </mxCell>
        <mxCell id="FXvvX26UyNrnhAL5f0EQ-33" style="edgeStyle=orthogonalEdgeStyle;rounded=0;orthogonalLoop=1;jettySize=auto;html=1;exitX=0.5;exitY=1;exitDx=0;exitDy=0;entryX=0.5;entryY=0;entryDx=0;entryDy=0;entryPerimeter=0;" parent="1" source="FXvvX26UyNrnhAL5f0EQ-30" target="FXvvX26UyNrnhAL5f0EQ-32" edge="1">
          <mxGeometry relative="1" as="geometry" />
        </mxCell>
        <mxCell id="FXvvX26UyNrnhAL5f0EQ-34" value="退桌失败" style="whiteSpace=wrap;html=1;strokeWidth=2;" parent="1" vertex="1">
          <mxGeometry x="-400" y="588.5" width="120" height="60" as="geometry" />
        </mxCell>
        <mxCell id="FXvvX26UyNrnhAL5f0EQ-41" value="" style="edgeStyle=orthogonalEdgeStyle;rounded=0;orthogonalLoop=1;jettySize=auto;html=1;" parent="1" source="FXvvX26UyNrnhAL5f0EQ-36" target="FXvvX26UyNrnhAL5f0EQ-40" edge="1">
          <mxGeometry relative="1" as="geometry" />
        </mxCell>
        <mxCell id="FXvvX26UyNrnhAL5f0EQ-36" value="加载餐桌信息" style="whiteSpace=wrap;html=1;strokeWidth=2;" parent="1" vertex="1">
          <mxGeometry x="-630" y="760" width="120" height="60" as="geometry" />
        </mxCell>
        <mxCell id="FXvvX26UyNrnhAL5f0EQ-43" value="" style="edgeStyle=orthogonalEdgeStyle;rounded=0;orthogonalLoop=1;jettySize=auto;html=1;" parent="1" source="FXvvX26UyNrnhAL5f0EQ-40" target="FXvvX26UyNrnhAL5f0EQ-42" edge="1">
          <mxGeometry relative="1" as="geometry" />
        </mxCell>
        <mxCell id="FXvvX26UyNrnhAL5f0EQ-40" value="清空订单" style="whiteSpace=wrap;html=1;strokeWidth=2;" parent="1" vertex="1">
          <mxGeometry x="-630" y="900" width="120" height="60" as="geometry" />
        </mxCell>
        <mxCell id="FXvvX26UyNrnhAL5f0EQ-45" value="" style="edgeStyle=orthogonalEdgeStyle;rounded=0;orthogonalLoop=1;jettySize=auto;html=1;" parent="1" source="FXvvX26UyNrnhAL5f0EQ-42" target="FXvvX26UyNrnhAL5f0EQ-44" edge="1">
          <mxGeometry relative="1" as="geometry" />
        </mxCell>
        <mxCell id="FXvvX26UyNrnhAL5f0EQ-42" value="清空localstorage canteen-table" style="whiteSpace=wrap;html=1;strokeWidth=2;" parent="1" vertex="1">
          <mxGeometry x="-630" y="1040" width="120" height="60" as="geometry" />
        </mxCell>
        <mxCell id="FXvvX26UyNrnhAL5f0EQ-47" value="" style="edgeStyle=orthogonalEdgeStyle;rounded=0;orthogonalLoop=1;jettySize=auto;html=1;" parent="1" source="FXvvX26UyNrnhAL5f0EQ-44" target="FXvvX26UyNrnhAL5f0EQ-46" edge="1">
          <mxGeometry relative="1" as="geometry" />
        </mxCell>
        <mxCell id="FXvvX26UyNrnhAL5f0EQ-44" value="强制刷新餐桌" style="whiteSpace=wrap;html=1;strokeWidth=2;" parent="1" vertex="1">
          <mxGeometry x="-630" y="1180" width="120" height="60" as="geometry" />
        </mxCell>
        <mxCell id="FXvvX26UyNrnhAL5f0EQ-46" value="退桌成功" style="whiteSpace=wrap;html=1;strokeWidth=2;" parent="1" vertex="1">
          <mxGeometry x="-630" y="1320" width="120" height="60" as="geometry" />
        </mxCell>
        <mxCell id="YKNv07Idld9gK1rEMbDj-8" value="" style="edgeStyle=orthogonalEdgeStyle;rounded=0;orthogonalLoop=1;jettySize=auto;html=1;" parent="1" source="YKNv07Idld9gK1rEMbDj-1" target="YKNv07Idld9gK1rEMbDj-7" edge="1">
          <mxGeometry relative="1" as="geometry" />
        </mxCell>
        <mxCell id="YKNv07Idld9gK1rEMbDj-1" value="SpringBoot全部餐品" style="whiteSpace=wrap;html=1;rounded=0;" parent="1" vertex="1">
          <mxGeometry x="810" y="420" width="120" height="60" as="geometry" />
        </mxCell>
        <mxCell id="YKNv07Idld9gK1rEMbDj-10" style="edgeStyle=orthogonalEdgeStyle;rounded=0;orthogonalLoop=1;jettySize=auto;html=1;exitX=0.5;exitY=1;exitDx=0;exitDy=0;entryX=0.5;entryY=0;entryDx=0;entryDy=0;" parent="1" source="YKNv07Idld9gK1rEMbDj-4" target="YKNv07Idld9gK1rEMbDj-7" edge="1">
          <mxGeometry relative="1" as="geometry" />
        </mxCell>
        <mxCell id="YKNv07Idld9gK1rEMbDj-4" value="Flask推荐餐品" style="whiteSpace=wrap;html=1;rounded=0;" parent="1" vertex="1">
          <mxGeometry x="1019" y="420" width="120" height="60" as="geometry" />
        </mxCell>
        <mxCell id="YKNv07Idld9gK1rEMbDj-12" value="" style="edgeStyle=orthogonalEdgeStyle;rounded=0;orthogonalLoop=1;jettySize=auto;html=1;" parent="1" source="YKNv07Idld9gK1rEMbDj-7" target="YKNv07Idld9gK1rEMbDj-11" edge="1">
          <mxGeometry relative="1" as="geometry" />
        </mxCell>
        <mxCell id="YKNv07Idld9gK1rEMbDj-7" value="点击&quot;点餐&quot;&lt;div&gt;addToOrder(food)&lt;/div&gt;" style="whiteSpace=wrap;html=1;rounded=0;" parent="1" vertex="1">
          <mxGeometry x="909" y="588.5" width="120" height="60" as="geometry" />
        </mxCell>
        <mxCell id="YKNv07Idld9gK1rEMbDj-14" value="" style="edgeStyle=orthogonalEdgeStyle;rounded=0;orthogonalLoop=1;jettySize=auto;html=1;" parent="1" source="YKNv07Idld9gK1rEMbDj-11" edge="1">
          <mxGeometry relative="1" as="geometry">
            <mxPoint x="969" y="951.5" as="targetPoint" />
          </mxGeometry>
        </mxCell>
        <mxCell id="YKNv07Idld9gK1rEMbDj-15" value="是" style="edgeLabel;html=1;align=center;verticalAlign=middle;resizable=0;points=[];" parent="YKNv07Idld9gK1rEMbDj-14" vertex="1" connectable="0">
          <mxGeometry x="-0.2262" y="2" relative="1" as="geometry">
            <mxPoint as="offset" />
          </mxGeometry>
        </mxCell>
        <mxCell id="YKNv07Idld9gK1rEMbDj-17" value="" style="edgeStyle=orthogonalEdgeStyle;rounded=0;orthogonalLoop=1;jettySize=auto;html=1;" parent="1" source="YKNv07Idld9gK1rEMbDj-11" target="YKNv07Idld9gK1rEMbDj-16" edge="1">
          <mxGeometry relative="1" as="geometry" />
        </mxCell>
        <mxCell id="YKNv07Idld9gK1rEMbDj-18" value="否" style="edgeLabel;html=1;align=center;verticalAlign=middle;resizable=0;points=[];" parent="YKNv07Idld9gK1rEMbDj-17" vertex="1" connectable="0">
          <mxGeometry x="0.0704" y="-1" relative="1" as="geometry">
            <mxPoint as="offset" />
          </mxGeometry>
        </mxCell>
        <mxCell id="YKNv07Idld9gK1rEMbDj-11" value="判断food.id是否存在" style="rhombus;whiteSpace=wrap;html=1;rounded=0;" parent="1" vertex="1">
          <mxGeometry x="909" y="734.25" width="120" height="111.5" as="geometry" />
        </mxCell>
        <mxCell id="YKNv07Idld9gK1rEMbDj-16" value="报错" style="whiteSpace=wrap;html=1;rounded=0;" parent="1" vertex="1">
          <mxGeometry x="1109" y="760" width="120" height="60" as="geometry" />
        </mxCell>
        <mxCell id="YKNv07Idld9gK1rEMbDj-21" value="" style="edgeStyle=orthogonalEdgeStyle;rounded=0;orthogonalLoop=1;jettySize=auto;html=1;" parent="1" source="YKNv07Idld9gK1rEMbDj-19" target="YKNv07Idld9gK1rEMbDj-20" edge="1">
          <mxGeometry relative="1" as="geometry" />
        </mxCell>
        <mxCell id="YKNv07Idld9gK1rEMbDj-22" value="否" style="edgeLabel;html=1;align=center;verticalAlign=middle;resizable=0;points=[];" parent="YKNv07Idld9gK1rEMbDj-21" vertex="1" connectable="0">
          <mxGeometry x="0.0603" y="1" relative="1" as="geometry">
            <mxPoint as="offset" />
          </mxGeometry>
        </mxCell>
        <mxCell id="YKNv07Idld9gK1rEMbDj-24" value="" style="edgeStyle=orthogonalEdgeStyle;rounded=0;orthogonalLoop=1;jettySize=auto;html=1;" parent="1" source="YKNv07Idld9gK1rEMbDj-19" target="YKNv07Idld9gK1rEMbDj-23" edge="1">
          <mxGeometry relative="1" as="geometry" />
        </mxCell>
        <mxCell id="YKNv07Idld9gK1rEMbDj-25" value="是" style="edgeLabel;html=1;align=center;verticalAlign=middle;resizable=0;points=[];" parent="YKNv07Idld9gK1rEMbDj-24" vertex="1" connectable="0">
          <mxGeometry x="0.0278" y="2" relative="1" as="geometry">
            <mxPoint as="offset" />
          </mxGeometry>
        </mxCell>
        <mxCell id="YKNv07Idld9gK1rEMbDj-19" value="判断订单中食物是否存在" style="rhombus;whiteSpace=wrap;html=1;" parent="1" vertex="1">
          <mxGeometry x="884" y="950" width="170" height="140" as="geometry" />
        </mxCell>
        <mxCell id="YKNv07Idld9gK1rEMbDj-27" value="" style="edgeStyle=orthogonalEdgeStyle;rounded=0;orthogonalLoop=1;jettySize=auto;html=1;" parent="1" source="YKNv07Idld9gK1rEMbDj-20" target="YKNv07Idld9gK1rEMbDj-26" edge="1">
          <mxGeometry relative="1" as="geometry" />
        </mxCell>
        <mxCell id="YKNv07Idld9gK1rEMbDj-20" value="在订单中加入食物" style="whiteSpace=wrap;html=1;" parent="1" vertex="1">
          <mxGeometry x="1159" y="990" width="120" height="60" as="geometry" />
        </mxCell>
        <mxCell id="YKNv07Idld9gK1rEMbDj-29" style="edgeStyle=orthogonalEdgeStyle;rounded=0;orthogonalLoop=1;jettySize=auto;html=1;entryX=0.5;entryY=0;entryDx=0;entryDy=0;" parent="1" source="YKNv07Idld9gK1rEMbDj-23" target="YKNv07Idld9gK1rEMbDj-26" edge="1">
          <mxGeometry relative="1" as="geometry" />
        </mxCell>
        <mxCell id="YKNv07Idld9gK1rEMbDj-23" value="增加原本食物的数量" style="whiteSpace=wrap;html=1;" parent="1" vertex="1">
          <mxGeometry x="909" y="1210" width="120" height="60" as="geometry" />
        </mxCell>
        <mxCell id="YKNv07Idld9gK1rEMbDj-26" value="更新食物价格和食物数量" style="whiteSpace=wrap;html=1;" parent="1" vertex="1">
          <mxGeometry x="1159" y="1420" width="120" height="60" as="geometry" />
        </mxCell>
        <mxCell id="YKNv07Idld9gK1rEMbDj-32" style="edgeStyle=orthogonalEdgeStyle;rounded=0;orthogonalLoop=1;jettySize=auto;html=1;exitX=0.5;exitY=1;exitDx=0;exitDy=0;entryX=0.5;entryY=0;entryDx=0;entryDy=0;" parent="1" source="YKNv07Idld9gK1rEMbDj-30" target="YKNv07Idld9gK1rEMbDj-31" edge="1">
          <mxGeometry relative="1" as="geometry" />
        </mxCell>
        <mxCell id="YKNv07Idld9gK1rEMbDj-30" value="清空订单逻辑" style="rounded=1;whiteSpace=wrap;html=1;" parent="1" vertex="1">
          <mxGeometry x="1260" y="130" width="120" height="60" as="geometry" />
        </mxCell>
        <mxCell id="YKNv07Idld9gK1rEMbDj-31" value="直接置setOrderList为空" style="rounded=0;whiteSpace=wrap;html=1;" parent="1" vertex="1">
          <mxGeometry x="1250" y="270" width="140" height="60" as="geometry" />
        </mxCell>
        <mxCell id="YKNv07Idld9gK1rEMbDj-35" style="edgeStyle=orthogonalEdgeStyle;rounded=0;orthogonalLoop=1;jettySize=auto;html=1;exitX=0.5;exitY=1;exitDx=0;exitDy=0;entryX=0.5;entryY=0;entryDx=0;entryDy=0;" parent="1" source="YKNv07Idld9gK1rEMbDj-33" target="YKNv07Idld9gK1rEMbDj-34" edge="1">
          <mxGeometry relative="1" as="geometry" />
        </mxCell>
        <mxCell id="YKNv07Idld9gK1rEMbDj-33" value="退桌逻辑" style="rounded=1;whiteSpace=wrap;html=1;" parent="1" vertex="1">
          <mxGeometry x="1520" y="130" width="120" height="60" as="geometry" />
        </mxCell>
        <mxCell id="YKNv07Idld9gK1rEMbDj-38" style="edgeStyle=orthogonalEdgeStyle;rounded=0;orthogonalLoop=1;jettySize=auto;html=1;exitX=0.5;exitY=1;exitDx=0;exitDy=0;entryX=0.5;entryY=0;entryDx=0;entryDy=0;" parent="1" source="YKNv07Idld9gK1rEMbDj-34" target="YKNv07Idld9gK1rEMbDj-36" edge="1">
          <mxGeometry relative="1" as="geometry" />
        </mxCell>
        <mxCell id="YKNv07Idld9gK1rEMbDj-34" value="发起退桌请求" style="rounded=0;whiteSpace=wrap;html=1;" parent="1" vertex="1">
          <mxGeometry x="1520" y="270" width="120" height="60" as="geometry" />
        </mxCell>
        <mxCell id="YKNv07Idld9gK1rEMbDj-40" value="" style="edgeStyle=orthogonalEdgeStyle;rounded=0;orthogonalLoop=1;jettySize=auto;html=1;" parent="1" source="YKNv07Idld9gK1rEMbDj-36" target="YKNv07Idld9gK1rEMbDj-39" edge="1">
          <mxGeometry relative="1" as="geometry" />
        </mxCell>
        <mxCell id="YKNv07Idld9gK1rEMbDj-43" value="否" style="edgeLabel;html=1;align=center;verticalAlign=middle;resizable=0;points=[];" parent="YKNv07Idld9gK1rEMbDj-40" vertex="1" connectable="0">
          <mxGeometry x="-0.1879" y="1" relative="1" as="geometry">
            <mxPoint as="offset" />
          </mxGeometry>
        </mxCell>
        <mxCell id="YKNv07Idld9gK1rEMbDj-42" value="" style="edgeStyle=orthogonalEdgeStyle;rounded=0;orthogonalLoop=1;jettySize=auto;html=1;" parent="1" source="YKNv07Idld9gK1rEMbDj-36" target="YKNv07Idld9gK1rEMbDj-41" edge="1">
          <mxGeometry relative="1" as="geometry" />
        </mxCell>
        <mxCell id="YKNv07Idld9gK1rEMbDj-44" value="是" style="edgeLabel;html=1;align=center;verticalAlign=middle;resizable=0;points=[];" parent="YKNv07Idld9gK1rEMbDj-42" vertex="1" connectable="0">
          <mxGeometry x="-0.2281" y="-3" relative="1" as="geometry">
            <mxPoint as="offset" />
          </mxGeometry>
        </mxCell>
        <mxCell id="YKNv07Idld9gK1rEMbDj-36" value="判断code是否等于200" style="rhombus;whiteSpace=wrap;html=1;" parent="1" vertex="1">
          <mxGeometry x="1490" y="395" width="180" height="90" as="geometry" />
        </mxCell>
        <mxCell id="YKNv07Idld9gK1rEMbDj-39" value="报错" style="whiteSpace=wrap;html=1;" parent="1" vertex="1">
          <mxGeometry x="1780" y="410" width="120" height="60" as="geometry" />
        </mxCell>
        <mxCell id="YKNv07Idld9gK1rEMbDj-46" value="" style="edgeStyle=orthogonalEdgeStyle;rounded=0;orthogonalLoop=1;jettySize=auto;html=1;" parent="1" source="YKNv07Idld9gK1rEMbDj-41" target="YKNv07Idld9gK1rEMbDj-45" edge="1">
          <mxGeometry relative="1" as="geometry" />
        </mxCell>
        <mxCell id="YKNv07Idld9gK1rEMbDj-41" value="重新加载操作信息" style="whiteSpace=wrap;html=1;" parent="1" vertex="1">
          <mxGeometry x="1520" y="580" width="120" height="60" as="geometry" />
        </mxCell>
        <mxCell id="YKNv07Idld9gK1rEMbDj-48" value="" style="edgeStyle=orthogonalEdgeStyle;rounded=0;orthogonalLoop=1;jettySize=auto;html=1;" parent="1" source="YKNv07Idld9gK1rEMbDj-45" target="YKNv07Idld9gK1rEMbDj-47" edge="1">
          <mxGeometry relative="1" as="geometry" />
        </mxCell>
        <mxCell id="YKNv07Idld9gK1rEMbDj-45" value="清空订单" style="whiteSpace=wrap;html=1;" parent="1" vertex="1">
          <mxGeometry x="1520" y="720" width="120" height="60" as="geometry" />
        </mxCell>
        <mxCell id="YKNv07Idld9gK1rEMbDj-50" value="" style="edgeStyle=orthogonalEdgeStyle;rounded=0;orthogonalLoop=1;jettySize=auto;html=1;" parent="1" source="YKNv07Idld9gK1rEMbDj-47" target="YKNv07Idld9gK1rEMbDj-49" edge="1">
          <mxGeometry relative="1" as="geometry" />
        </mxCell>
        <mxCell id="YKNv07Idld9gK1rEMbDj-47" value="删除本地存储canteen-table" style="whiteSpace=wrap;html=1;" parent="1" vertex="1">
          <mxGeometry x="1520" y="860" width="120" height="60" as="geometry" />
        </mxCell>
        <mxCell id="YKNv07Idld9gK1rEMbDj-52" value="" style="edgeStyle=orthogonalEdgeStyle;rounded=0;orthogonalLoop=1;jettySize=auto;html=1;" parent="1" source="YKNv07Idld9gK1rEMbDj-49" target="YKNv07Idld9gK1rEMbDj-51" edge="1">
          <mxGeometry relative="1" as="geometry" />
        </mxCell>
        <mxCell id="YKNv07Idld9gK1rEMbDj-49" value="强制刷新餐桌" style="whiteSpace=wrap;html=1;" parent="1" vertex="1">
          <mxGeometry x="1520" y="1000" width="120" height="60" as="geometry" />
        </mxCell>
        <mxCell id="YKNv07Idld9gK1rEMbDj-51" value="退桌成功" style="whiteSpace=wrap;html=1;" parent="1" vertex="1">
          <mxGeometry x="1520" y="1140" width="120" height="60" as="geometry" />
        </mxCell>
        <mxCell id="YKNv07Idld9gK1rEMbDj-55" style="edgeStyle=orthogonalEdgeStyle;rounded=0;orthogonalLoop=1;jettySize=auto;html=1;exitX=0.5;exitY=1;exitDx=0;exitDy=0;entryX=0.5;entryY=0;entryDx=0;entryDy=0;" parent="1" source="YKNv07Idld9gK1rEMbDj-53" target="YKNv07Idld9gK1rEMbDj-54" edge="1">
          <mxGeometry relative="1" as="geometry" />
        </mxCell>
        <mxCell id="YKNv07Idld9gK1rEMbDj-53" value="强制刷新餐桌逻辑" style="rounded=1;whiteSpace=wrap;html=1;" parent="1" vertex="1">
          <mxGeometry x="1970" y="130" width="120" height="60" as="geometry" />
        </mxCell>
        <mxCell id="YKNv07Idld9gK1rEMbDj-57" value="" style="edgeStyle=orthogonalEdgeStyle;rounded=0;orthogonalLoop=1;jettySize=auto;html=1;" parent="1" source="YKNv07Idld9gK1rEMbDj-54" target="YKNv07Idld9gK1rEMbDj-56" edge="1">
          <mxGeometry relative="1" as="geometry" />
        </mxCell>
        <mxCell id="YKNv07Idld9gK1rEMbDj-54" value="request查询所有" style="rounded=0;whiteSpace=wrap;html=1;" parent="1" vertex="1">
          <mxGeometry x="1970" y="260" width="120" height="60" as="geometry" />
        </mxCell>
        <mxCell id="YKNv07Idld9gK1rEMbDj-59" value="" style="edgeStyle=orthogonalEdgeStyle;rounded=0;orthogonalLoop=1;jettySize=auto;html=1;" parent="1" source="YKNv07Idld9gK1rEMbDj-56" target="YKNv07Idld9gK1rEMbDj-58" edge="1">
          <mxGeometry relative="1" as="geometry" />
        </mxCell>
        <mxCell id="YKNv07Idld9gK1rEMbDj-61" value="" style="edgeStyle=orthogonalEdgeStyle;rounded=0;orthogonalLoop=1;jettySize=auto;html=1;" parent="1" source="YKNv07Idld9gK1rEMbDj-56" target="YKNv07Idld9gK1rEMbDj-60" edge="1">
          <mxGeometry relative="1" as="geometry" />
        </mxCell>
        <mxCell id="YKNv07Idld9gK1rEMbDj-56" value="给餐桌table赋值&lt;div&gt;返回的数据或者空&lt;/div&gt;" style="whiteSpace=wrap;html=1;rounded=0;" parent="1" vertex="1">
          <mxGeometry x="1970" y="400" width="120" height="60" as="geometry" />
        </mxCell>
        <mxCell id="YKNv07Idld9gK1rEMbDj-58" value="结束" style="whiteSpace=wrap;html=1;rounded=0;" parent="1" vertex="1">
          <mxGeometry x="1970" y="540" width="120" height="60" as="geometry" />
        </mxCell>
        <mxCell id="YKNv07Idld9gK1rEMbDj-60" value="报错" style="whiteSpace=wrap;html=1;rounded=0;" parent="1" vertex="1">
          <mxGeometry x="2140" y="400" width="120" height="60" as="geometry" />
        </mxCell>
        <mxCell id="-gMx1dS4Kd6uetVAj_db-3" value="" style="edgeStyle=orthogonalEdgeStyle;rounded=0;orthogonalLoop=1;jettySize=auto;html=1;" edge="1" parent="1" source="-gMx1dS4Kd6uetVAj_db-1" target="-gMx1dS4Kd6uetVAj_db-2">
          <mxGeometry relative="1" as="geometry" />
        </mxCell>
        <mxCell id="-gMx1dS4Kd6uetVAj_db-1" value="开始" style="strokeWidth=2;html=1;shape=mxgraph.flowchart.start_1;whiteSpace=wrap;" vertex="1" parent="1">
          <mxGeometry x="-630" y="1550" width="100" height="60" as="geometry" />
        </mxCell>
        <mxCell id="-gMx1dS4Kd6uetVAj_db-5" value="" style="edgeStyle=orthogonalEdgeStyle;rounded=0;orthogonalLoop=1;jettySize=auto;html=1;" edge="1" parent="1" source="-gMx1dS4Kd6uetVAj_db-2" target="-gMx1dS4Kd6uetVAj_db-4">
          <mxGeometry relative="1" as="geometry" />
        </mxCell>
        <mxCell id="-gMx1dS4Kd6uetVAj_db-2" value="进入系统" style="whiteSpace=wrap;html=1;strokeWidth=2;" vertex="1" parent="1">
          <mxGeometry x="-640" y="1690" width="120" height="60" as="geometry" />
        </mxCell>
        <mxCell id="-gMx1dS4Kd6uetVAj_db-9" value="" style="edgeStyle=orthogonalEdgeStyle;rounded=0;orthogonalLoop=1;jettySize=auto;html=1;" edge="1" parent="1" source="-gMx1dS4Kd6uetVAj_db-4" target="-gMx1dS4Kd6uetVAj_db-8">
          <mxGeometry relative="1" as="geometry" />
        </mxCell>
        <mxCell id="-gMx1dS4Kd6uetVAj_db-4" value="登录页面" style="whiteSpace=wrap;html=1;strokeWidth=2;" vertex="1" parent="1">
          <mxGeometry x="-640" y="1830" width="120" height="60" as="geometry" />
        </mxCell>
        <mxCell id="-gMx1dS4Kd6uetVAj_db-11" value="" style="edgeStyle=orthogonalEdgeStyle;rounded=0;orthogonalLoop=1;jettySize=auto;html=1;" edge="1" parent="1" source="-gMx1dS4Kd6uetVAj_db-8" target="-gMx1dS4Kd6uetVAj_db-10">
          <mxGeometry relative="1" as="geometry" />
        </mxCell>
        <mxCell id="-gMx1dS4Kd6uetVAj_db-8" value="选择身份类型（用户 / 管理员）" style="whiteSpace=wrap;html=1;strokeWidth=2;" vertex="1" parent="1">
          <mxGeometry x="-655" y="1970" width="150" height="60" as="geometry" />
        </mxCell>
        <mxCell id="-gMx1dS4Kd6uetVAj_db-13" value="" style="edgeStyle=orthogonalEdgeStyle;rounded=0;orthogonalLoop=1;jettySize=auto;html=1;" edge="1" parent="1" source="-gMx1dS4Kd6uetVAj_db-10" target="-gMx1dS4Kd6uetVAj_db-12">
          <mxGeometry relative="1" as="geometry" />
        </mxCell>
        <mxCell id="-gMx1dS4Kd6uetVAj_db-14" value="否" style="edgeLabel;html=1;align=center;verticalAlign=middle;resizable=0;points=[];" vertex="1" connectable="0" parent="-gMx1dS4Kd6uetVAj_db-13">
          <mxGeometry x="-0.0851" y="1" relative="1" as="geometry">
            <mxPoint as="offset" />
          </mxGeometry>
        </mxCell>
        <mxCell id="-gMx1dS4Kd6uetVAj_db-16" value="" style="edgeStyle=orthogonalEdgeStyle;rounded=0;orthogonalLoop=1;jettySize=auto;html=1;" edge="1" parent="1" source="-gMx1dS4Kd6uetVAj_db-10" target="-gMx1dS4Kd6uetVAj_db-15">
          <mxGeometry relative="1" as="geometry" />
        </mxCell>
        <mxCell id="-gMx1dS4Kd6uetVAj_db-17" value="是" style="edgeLabel;html=1;align=center;verticalAlign=middle;resizable=0;points=[];" vertex="1" connectable="0" parent="-gMx1dS4Kd6uetVAj_db-16">
          <mxGeometry x="0.0286" y="1" relative="1" as="geometry">
            <mxPoint as="offset" />
          </mxGeometry>
        </mxCell>
        <mxCell id="-gMx1dS4Kd6uetVAj_db-10" value="是否验证通过?" style="rhombus;whiteSpace=wrap;html=1;strokeWidth=2;" vertex="1" parent="1">
          <mxGeometry x="-632.5" y="2070" width="105" height="110" as="geometry" />
        </mxCell>
        <mxCell id="-gMx1dS4Kd6uetVAj_db-12" value="提示错误，重新登录" style="whiteSpace=wrap;html=1;strokeWidth=2;" vertex="1" parent="1">
          <mxGeometry x="-455" y="2095" width="120" height="60" as="geometry" />
        </mxCell>
        <mxCell id="-gMx1dS4Kd6uetVAj_db-15" value="" style="whiteSpace=wrap;html=1;strokeWidth=2;" vertex="1" parent="1">
          <mxGeometry x="-640" y="2260" width="120" height="60" as="geometry" />
        </mxCell>
      </root>
    </mxGraphModel>
  </diagram>
  <diagram id="gbXHDhZPTikDOZG44gW2" name="第 2 页">
    <mxGraphModel dx="2042" dy="-512" grid="1" gridSize="10" guides="1" tooltips="1" connect="1" arrows="1" fold="1" page="1" pageScale="1" pageWidth="827" pageHeight="1169" math="0" shadow="0">
      <root>
        <mxCell id="0" />
        <mxCell id="1" parent="0" />
        <mxCell id="EA8qTUzmmzwKFeUUfKse-1" value="" style="edgeStyle=orthogonalEdgeStyle;rounded=0;orthogonalLoop=1;jettySize=auto;html=1;" parent="1" source="EA8qTUzmmzwKFeUUfKse-2" target="EA8qTUzmmzwKFeUUfKse-4" edge="1">
          <mxGeometry relative="1" as="geometry" />
        </mxCell>
        <mxCell id="EA8qTUzmmzwKFeUUfKse-2" value="开始" style="strokeWidth=2;html=1;shape=mxgraph.flowchart.start_1;whiteSpace=wrap;" parent="1" vertex="1">
          <mxGeometry x="-630" y="1590" width="100" height="60" as="geometry" />
        </mxCell>
        <mxCell id="EA8qTUzmmzwKFeUUfKse-3" value="" style="edgeStyle=orthogonalEdgeStyle;rounded=0;orthogonalLoop=1;jettySize=auto;html=1;" parent="1" source="EA8qTUzmmzwKFeUUfKse-4" target="EA8qTUzmmzwKFeUUfKse-6" edge="1">
          <mxGeometry relative="1" as="geometry" />
        </mxCell>
        <mxCell id="EA8qTUzmmzwKFeUUfKse-4" value="进入系统" style="whiteSpace=wrap;html=1;strokeWidth=2;" parent="1" vertex="1">
          <mxGeometry x="-640" y="1670" width="120" height="60" as="geometry" />
        </mxCell>
        <mxCell id="EA8qTUzmmzwKFeUUfKse-5" value="" style="edgeStyle=orthogonalEdgeStyle;rounded=0;orthogonalLoop=1;jettySize=auto;html=1;" parent="1" source="EA8qTUzmmzwKFeUUfKse-6" target="EA8qTUzmmzwKFeUUfKse-8" edge="1">
          <mxGeometry relative="1" as="geometry" />
        </mxCell>
        <mxCell id="EA8qTUzmmzwKFeUUfKse-6" value="登录页面" style="whiteSpace=wrap;html=1;strokeWidth=2;" parent="1" vertex="1">
          <mxGeometry x="-640" y="1760" width="120" height="60" as="geometry" />
        </mxCell>
        <mxCell id="EA8qTUzmmzwKFeUUfKse-7" value="" style="edgeStyle=orthogonalEdgeStyle;rounded=0;orthogonalLoop=1;jettySize=auto;html=1;" parent="1" source="EA8qTUzmmzwKFeUUfKse-8" target="EA8qTUzmmzwKFeUUfKse-13" edge="1">
          <mxGeometry relative="1" as="geometry" />
        </mxCell>
        <mxCell id="EA8qTUzmmzwKFeUUfKse-8" value="选择身份类型（用户 / 管理员）" style="whiteSpace=wrap;html=1;strokeWidth=2;" parent="1" vertex="1">
          <mxGeometry x="-655" y="1860" width="150" height="60" as="geometry" />
        </mxCell>
        <mxCell id="EA8qTUzmmzwKFeUUfKse-9" value="" style="edgeStyle=orthogonalEdgeStyle;rounded=0;orthogonalLoop=1;jettySize=auto;html=1;" parent="1" source="EA8qTUzmmzwKFeUUfKse-13" target="EA8qTUzmmzwKFeUUfKse-14" edge="1">
          <mxGeometry relative="1" as="geometry" />
        </mxCell>
        <mxCell id="EA8qTUzmmzwKFeUUfKse-10" value="否" style="edgeLabel;html=1;align=center;verticalAlign=middle;resizable=0;points=[];" parent="EA8qTUzmmzwKFeUUfKse-9" vertex="1" connectable="0">
          <mxGeometry x="-0.0851" y="1" relative="1" as="geometry">
            <mxPoint as="offset" />
          </mxGeometry>
        </mxCell>
        <mxCell id="WvD54P7uZK_KTLKN0Kxl-4" style="edgeStyle=orthogonalEdgeStyle;rounded=0;orthogonalLoop=1;jettySize=auto;html=1;exitX=0.5;exitY=1;exitDx=0;exitDy=0;entryX=0.5;entryY=0;entryDx=0;entryDy=0;" edge="1" parent="1" source="EA8qTUzmmzwKFeUUfKse-13" target="EA8qTUzmmzwKFeUUfKse-18">
          <mxGeometry relative="1" as="geometry" />
        </mxCell>
        <mxCell id="WvD54P7uZK_KTLKN0Kxl-5" style="edgeStyle=orthogonalEdgeStyle;rounded=0;orthogonalLoop=1;jettySize=auto;html=1;exitX=0.5;exitY=1;exitDx=0;exitDy=0;entryX=0.5;entryY=0;entryDx=0;entryDy=0;" edge="1" parent="1" source="EA8qTUzmmzwKFeUUfKse-13" target="EA8qTUzmmzwKFeUUfKse-19">
          <mxGeometry relative="1" as="geometry" />
        </mxCell>
        <mxCell id="EA8qTUzmmzwKFeUUfKse-13" value="是否验证通过?" style="rhombus;whiteSpace=wrap;html=1;strokeWidth=2;" parent="1" vertex="1">
          <mxGeometry x="-632.5" y="1960" width="105" height="110" as="geometry" />
        </mxCell>
        <mxCell id="EA8qTUzmmzwKFeUUfKse-14" value="提示错误，重新登录" style="whiteSpace=wrap;html=1;strokeWidth=2;" parent="1" vertex="1">
          <mxGeometry x="-460" y="1985" width="120" height="60" as="geometry" />
        </mxCell>
        <mxCell id="WvD54P7uZK_KTLKN0Kxl-3" style="edgeStyle=orthogonalEdgeStyle;rounded=0;orthogonalLoop=1;jettySize=auto;html=1;exitX=0.5;exitY=1;exitDx=0;exitDy=0;entryX=0.5;entryY=0;entryDx=0;entryDy=0;" edge="1" parent="1" source="EA8qTUzmmzwKFeUUfKse-18" target="EA8qTUzmmzwKFeUUfKse-22">
          <mxGeometry relative="1" as="geometry" />
        </mxCell>
        <mxCell id="EA8qTUzmmzwKFeUUfKse-18" value="用户首页:餐桌展示" style="rounded=0;whiteSpace=wrap;html=1;" parent="1" vertex="1">
          <mxGeometry x="-740" y="2110" width="120" height="60" as="geometry" />
        </mxCell>
        <mxCell id="EA8qTUzmmzwKFeUUfKse-59" value="" style="edgeStyle=orthogonalEdgeStyle;rounded=0;orthogonalLoop=1;jettySize=auto;html=1;" parent="1" source="EA8qTUzmmzwKFeUUfKse-19" target="EA8qTUzmmzwKFeUUfKse-58" edge="1">
          <mxGeometry relative="1" as="geometry" />
        </mxCell>
        <mxCell id="EA8qTUzmmzwKFeUUfKse-19" value="管理员首页" style="rounded=0;whiteSpace=wrap;html=1;" parent="1" vertex="1">
          <mxGeometry x="-520" y="2110" width="120" height="60" as="geometry" />
        </mxCell>
        <mxCell id="EA8qTUzmmzwKFeUUfKse-24" value="" style="edgeStyle=orthogonalEdgeStyle;rounded=0;orthogonalLoop=1;jettySize=auto;html=1;" parent="1" source="EA8qTUzmmzwKFeUUfKse-22" target="EA8qTUzmmzwKFeUUfKse-23" edge="1">
          <mxGeometry relative="1" as="geometry" />
        </mxCell>
        <mxCell id="EA8qTUzmmzwKFeUUfKse-22" value="点击&quot;开始点餐&quot;" style="rounded=0;whiteSpace=wrap;html=1;" parent="1" vertex="1">
          <mxGeometry x="-740" y="2230" width="120" height="60" as="geometry" />
        </mxCell>
        <mxCell id="EA8qTUzmmzwKFeUUfKse-26" value="" style="edgeStyle=orthogonalEdgeStyle;rounded=0;orthogonalLoop=1;jettySize=auto;html=1;" parent="1" source="EA8qTUzmmzwKFeUUfKse-23" target="EA8qTUzmmzwKFeUUfKse-25" edge="1">
          <mxGeometry relative="1" as="geometry" />
        </mxCell>
        <mxCell id="EA8qTUzmmzwKFeUUfKse-23" value="浏览菜单/查看推荐菜品" style="whiteSpace=wrap;html=1;rounded=0;" parent="1" vertex="1">
          <mxGeometry x="-745" y="2320" width="130" height="60" as="geometry" />
        </mxCell>
        <mxCell id="EA8qTUzmmzwKFeUUfKse-28" value="" style="edgeStyle=orthogonalEdgeStyle;rounded=0;orthogonalLoop=1;jettySize=auto;html=1;" parent="1" source="EA8qTUzmmzwKFeUUfKse-25" target="EA8qTUzmmzwKFeUUfKse-27" edge="1">
          <mxGeometry relative="1" as="geometry" />
        </mxCell>
        <mxCell id="EA8qTUzmmzwKFeUUfKse-25" value="添加菜品到已选列表" style="whiteSpace=wrap;html=1;rounded=0;" parent="1" vertex="1">
          <mxGeometry x="-740" y="2410" width="120" height="60" as="geometry" />
        </mxCell>
        <mxCell id="EA8qTUzmmzwKFeUUfKse-30" value="" style="edgeStyle=orthogonalEdgeStyle;rounded=0;orthogonalLoop=1;jettySize=auto;html=1;" parent="1" source="EA8qTUzmmzwKFeUUfKse-27" target="EA8qTUzmmzwKFeUUfKse-29" edge="1">
          <mxGeometry relative="1" as="geometry" />
        </mxCell>
        <mxCell id="EA8qTUzmmzwKFeUUfKse-27" value="提交订单" style="whiteSpace=wrap;html=1;rounded=0;" parent="1" vertex="1">
          <mxGeometry x="-740" y="2500" width="120" height="60" as="geometry" />
        </mxCell>
        <mxCell id="WvD54P7uZK_KTLKN0Kxl-6" style="edgeStyle=orthogonalEdgeStyle;rounded=0;orthogonalLoop=1;jettySize=auto;html=1;exitX=0.5;exitY=1;exitDx=0;exitDy=0;entryX=0.5;entryY=0;entryDx=0;entryDy=0;" edge="1" parent="1" source="EA8qTUzmmzwKFeUUfKse-29" target="EA8qTUzmmzwKFeUUfKse-33">
          <mxGeometry relative="1" as="geometry" />
        </mxCell>
        <mxCell id="EA8qTUzmmzwKFeUUfKse-29" value="订单状态:等待管理员处理" style="whiteSpace=wrap;html=1;rounded=0;" parent="1" vertex="1">
          <mxGeometry x="-750" y="2600" width="140" height="60" as="geometry" />
        </mxCell>
        <mxCell id="EA8qTUzmmzwKFeUUfKse-35" value="" style="edgeStyle=orthogonalEdgeStyle;rounded=0;orthogonalLoop=1;jettySize=auto;html=1;" parent="1" source="EA8qTUzmmzwKFeUUfKse-33" target="EA8qTUzmmzwKFeUUfKse-34" edge="1">
          <mxGeometry relative="1" as="geometry" />
        </mxCell>
        <mxCell id="EA8qTUzmmzwKFeUUfKse-36" value="否" style="edgeLabel;html=1;align=center;verticalAlign=middle;resizable=0;points=[];" parent="EA8qTUzmmzwKFeUUfKse-35" vertex="1" connectable="0">
          <mxGeometry x="0.2" y="-3" relative="1" as="geometry">
            <mxPoint as="offset" />
          </mxGeometry>
        </mxCell>
        <mxCell id="EA8qTUzmmzwKFeUUfKse-38" value="" style="edgeStyle=orthogonalEdgeStyle;rounded=0;orthogonalLoop=1;jettySize=auto;html=1;" parent="1" source="EA8qTUzmmzwKFeUUfKse-33" target="EA8qTUzmmzwKFeUUfKse-37" edge="1">
          <mxGeometry relative="1" as="geometry" />
        </mxCell>
        <mxCell id="EA8qTUzmmzwKFeUUfKse-39" value="是" style="edgeLabel;html=1;align=center;verticalAlign=middle;resizable=0;points=[];" parent="EA8qTUzmmzwKFeUUfKse-38" vertex="1" connectable="0">
          <mxGeometry x="-0.229" relative="1" as="geometry">
            <mxPoint as="offset" />
          </mxGeometry>
        </mxCell>
        <mxCell id="EA8qTUzmmzwKFeUUfKse-33" value="是否已被管理员设置为&quot;待结算&quot;?" style="rhombus;whiteSpace=wrap;html=1;" parent="1" vertex="1">
          <mxGeometry x="-770" y="2710" width="180" height="130" as="geometry" />
        </mxCell>
        <mxCell id="EA8qTUzmmzwKFeUUfKse-34" value="等待" style="whiteSpace=wrap;html=1;" parent="1" vertex="1">
          <mxGeometry x="-500" y="2745" width="120" height="60" as="geometry" />
        </mxCell>
        <mxCell id="EA8qTUzmmzwKFeUUfKse-41" value="" style="edgeStyle=orthogonalEdgeStyle;rounded=0;orthogonalLoop=1;jettySize=auto;html=1;" parent="1" source="EA8qTUzmmzwKFeUUfKse-37" target="EA8qTUzmmzwKFeUUfKse-40" edge="1">
          <mxGeometry relative="1" as="geometry" />
        </mxCell>
        <mxCell id="EA8qTUzmmzwKFeUUfKse-37" value="点击&quot;结算&quot;" style="whiteSpace=wrap;html=1;" parent="1" vertex="1">
          <mxGeometry x="-740" y="2893" width="120" height="60" as="geometry" />
        </mxCell>
        <mxCell id="EA8qTUzmmzwKFeUUfKse-43" value="" style="edgeStyle=orthogonalEdgeStyle;rounded=0;orthogonalLoop=1;jettySize=auto;html=1;" parent="1" source="EA8qTUzmmzwKFeUUfKse-40" target="EA8qTUzmmzwKFeUUfKse-42" edge="1">
          <mxGeometry relative="1" as="geometry" />
        </mxCell>
        <mxCell id="EA8qTUzmmzwKFeUUfKse-45" value="否" style="edgeLabel;html=1;align=center;verticalAlign=middle;resizable=0;points=[];" parent="EA8qTUzmmzwKFeUUfKse-43" vertex="1" connectable="0">
          <mxGeometry x="-0.1294" y="-1" relative="1" as="geometry">
            <mxPoint as="offset" />
          </mxGeometry>
        </mxCell>
        <mxCell id="EA8qTUzmmzwKFeUUfKse-47" value="" style="edgeStyle=orthogonalEdgeStyle;rounded=0;orthogonalLoop=1;jettySize=auto;html=1;" parent="1" source="EA8qTUzmmzwKFeUUfKse-40" target="EA8qTUzmmzwKFeUUfKse-46" edge="1">
          <mxGeometry relative="1" as="geometry" />
        </mxCell>
        <mxCell id="EA8qTUzmmzwKFeUUfKse-48" value="是" style="edgeLabel;html=1;align=center;verticalAlign=middle;resizable=0;points=[];" parent="EA8qTUzmmzwKFeUUfKse-47" vertex="1" connectable="0">
          <mxGeometry x="-0.1545" y="-1" relative="1" as="geometry">
            <mxPoint as="offset" />
          </mxGeometry>
        </mxCell>
        <mxCell id="EA8qTUzmmzwKFeUUfKse-40" value="账户余额是否充足?" style="rhombus;whiteSpace=wrap;html=1;" parent="1" vertex="1">
          <mxGeometry x="-745" y="3000" width="130" height="105" as="geometry" />
        </mxCell>
        <mxCell id="EA8qTUzmmzwKFeUUfKse-57" style="edgeStyle=orthogonalEdgeStyle;rounded=0;orthogonalLoop=1;jettySize=auto;html=1;exitX=1;exitY=0.5;exitDx=0;exitDy=0;entryX=1;entryY=0.5;entryDx=0;entryDy=0;strokeColor=default;dashed=1;" parent="1" source="EA8qTUzmmzwKFeUUfKse-42" target="EA8qTUzmmzwKFeUUfKse-37" edge="1">
          <mxGeometry relative="1" as="geometry" />
        </mxCell>
        <mxCell id="EA8qTUzmmzwKFeUUfKse-42" value="手动跳转到个人页面充值" style="whiteSpace=wrap;html=1;" parent="1" vertex="1">
          <mxGeometry x="-510" y="3022.5" width="120" height="60" as="geometry" />
        </mxCell>
        <mxCell id="EA8qTUzmmzwKFeUUfKse-50" value="" style="edgeStyle=orthogonalEdgeStyle;rounded=0;orthogonalLoop=1;jettySize=auto;html=1;" parent="1" source="EA8qTUzmmzwKFeUUfKse-46" target="EA8qTUzmmzwKFeUUfKse-49" edge="1">
          <mxGeometry relative="1" as="geometry" />
        </mxCell>
        <mxCell id="EA8qTUzmmzwKFeUUfKse-52" value="" style="edgeStyle=orthogonalEdgeStyle;rounded=0;orthogonalLoop=1;jettySize=auto;html=1;" parent="1" source="EA8qTUzmmzwKFeUUfKse-46" target="EA8qTUzmmzwKFeUUfKse-51" edge="1">
          <mxGeometry relative="1" as="geometry" />
        </mxCell>
        <mxCell id="EA8qTUzmmzwKFeUUfKse-46" value="完成支付" style="whiteSpace=wrap;html=1;" parent="1" vertex="1">
          <mxGeometry x="-740" y="3190" width="120" height="60" as="geometry" />
        </mxCell>
        <mxCell id="EA8qTUzmmzwKFeUUfKse-49" value="订单完成" style="whiteSpace=wrap;html=1;" parent="1" vertex="1">
          <mxGeometry x="-527.5" y="3190" width="120" height="60" as="geometry" />
        </mxCell>
        <mxCell id="EA8qTUzmmzwKFeUUfKse-51" value="退出" style="whiteSpace=wrap;html=1;" parent="1" vertex="1">
          <mxGeometry x="-740" y="3290" width="120" height="60" as="geometry" />
        </mxCell>
        <mxCell id="EA8qTUzmmzwKFeUUfKse-55" value="结束" style="strokeWidth=2;html=1;shape=mxgraph.flowchart.start_1;whiteSpace=wrap;" parent="1" vertex="1">
          <mxGeometry x="-730" y="3390" width="100" height="60" as="geometry" />
        </mxCell>
        <mxCell id="EA8qTUzmmzwKFeUUfKse-56" style="edgeStyle=orthogonalEdgeStyle;rounded=0;orthogonalLoop=1;jettySize=auto;html=1;exitX=0.5;exitY=1;exitDx=0;exitDy=0;entryX=0.5;entryY=0;entryDx=0;entryDy=0;entryPerimeter=0;" parent="1" source="EA8qTUzmmzwKFeUUfKse-51" target="EA8qTUzmmzwKFeUUfKse-55" edge="1">
          <mxGeometry relative="1" as="geometry" />
        </mxCell>
        <mxCell id="EA8qTUzmmzwKFeUUfKse-61" value="" style="edgeStyle=orthogonalEdgeStyle;rounded=0;orthogonalLoop=1;jettySize=auto;html=1;" parent="1" source="EA8qTUzmmzwKFeUUfKse-58" target="EA8qTUzmmzwKFeUUfKse-60" edge="1">
          <mxGeometry relative="1" as="geometry" />
        </mxCell>
        <mxCell id="EA8qTUzmmzwKFeUUfKse-58" value="查看订单状态" style="whiteSpace=wrap;html=1;rounded=0;" parent="1" vertex="1">
          <mxGeometry x="-520" y="2230" width="120" height="60" as="geometry" />
        </mxCell>
        <mxCell id="EA8qTUzmmzwKFeUUfKse-63" value="" style="edgeStyle=orthogonalEdgeStyle;rounded=0;orthogonalLoop=1;jettySize=auto;html=1;" parent="1" source="EA8qTUzmmzwKFeUUfKse-60" target="EA8qTUzmmzwKFeUUfKse-62" edge="1">
          <mxGeometry relative="1" as="geometry" />
        </mxCell>
        <mxCell id="EA8qTUzmmzwKFeUUfKse-60" value="接受用户订单" style="whiteSpace=wrap;html=1;rounded=0;" parent="1" vertex="1">
          <mxGeometry x="-520" y="2330" width="120" height="60" as="geometry" />
        </mxCell>
        <mxCell id="EA8qTUzmmzwKFeUUfKse-62" value="将订单状态改为&quot;待结算&quot;" style="whiteSpace=wrap;html=1;rounded=0;" parent="1" vertex="1">
          <mxGeometry x="-530" y="2430" width="140" height="60" as="geometry" />
        </mxCell>
      </root>
    </mxGraphModel>
  </diagram>
</mxfile>
